<?xml version="1.0" encoding="UTF-8"?><svg id="Calque_1" xmlns="http://www.w3.org/2000/svg" viewBox="0 0 200 200"><g><path d="m144.94,56.11l-1.48.42-28.22,7.97v-10.19l-2.05.24-2.05.24v10.03l-29.47-4.49-7.6-1.15-7.65.9h-.01v18.1l74.63,11.72h.01l4.45.7v-34.57c-.19,0-.37.03-.56.08Zm-76.48,20.32v-13.99l44.31,6.74.11.02c.1.02.2.03.29.03.14,0,.29-.01.43-.04.06,0,.11-.02.15-.03l.1-.03,29.61-8.35v27.43l-75-11.79Z"/><path d="m143.45,58.65v29.57l2.05.32v-30.46l-2.05.57Zm-30.27-6.16l-2.05.24v4.11l2.05-.24,2.05-.24v-4.11l-2.05.24Zm33.55,3.96c-.36-.27-.78-.42-1.23-.42-.19,0-.37.03-.56.08l-1.48.42v31.69l-75-11.79v-14.54l5.57-.66,7.64-.9-7.6-1.15-7.63-1.17-.27.03c-.92.11-1.64.84-1.78,1.73-.01.1-.02.21-.02.31v18.1c0,.27.05.53.15.77.26.65.85,1.13,1.57,1.24l.56.09,70.12,11.03h.02l4.43.69,3.96.63c.11.01.21.02.32.02.24,0,.48-.04.7-.13.1-.03.2-.08.3-.14.01.01.02,0,.03-.01.01,0,.03-.01.04-.03.08-.04.15-.09.22-.15.13-.11.25-.23.35-.37.05-.08.11-.15.15-.23.15-.3.24-.63.24-.97v-32.52c0-.64-.31-1.24-.81-1.63Z"/></g><g><path d="m111.17,32.3l-73.79-10.89v34.24l27,4.11,2.02.31h.01l7.61,1.15,37.11,5.65,2.05.31v-34.59l-2.01-.3Zm-.03,32.51l-29.47-4.49-7.6-1.15-7.63-1.17-27.02-4.11v-30.12l71.71,10.58v30.46Z"/><path d="m115.15,32.07c-.2-.77-.85-1.37-1.67-1.5l-.4-.05h-.02l-65.05-9.6h-.01l-5.35-.79-4.97-.74c-.22-.03-.44-.02-.65.01l-.13.03s-.05.01-.08.02c-.07.02-.13.04-.2.07-.1.04-.21.09-.3.14-.07.03-.12.08-.18.12s-.1.08-.14.12c-.07.05-.12.12-.18.19-.03.03-.05.07-.08.1-.02.02-.03.03-.04.05-.04.05-.08.12-.11.18-.05.09-.1.19-.13.29-.01.01-.01.03-.02.05-.08.21-.11.43-.11.65v34.24c0,1.01.74,1.87,1.74,2.01l27.29,4.16,2.05.31,2.05.31,44.31,6.74.11.02c.1.02.2.03.29.03.14,0,.29-.01.43-.04.09-.02.16-.04.25-.07.24-.08.47-.21.67-.38.45-.4.71-.96.71-1.55v-34.59c0-.19-.02-.36-.08-.53Zm-4.01,32.74l-29.47-4.49-7.6-1.15-7.63-1.17-27.02-4.11v-30.12l71.71,10.58v30.46Z"/></g><g><path d="m115.15,32.07l-1.97.53v34.59l2.05-.57,28.22-7.97,2.05-.57v32.52l-4.28,1.4-26.1,8.53-1.94.64v31.69l2.05-.71,51.39-17.92V18.23l-51.47,13.84Zm49.42,80.69l-49.35,17.21v-27.32l30.91-10.1s.04-.01.07-.03c.1-.03.2-.08.3-.14.01.01.02,0,.03-.01.01,0,.03-.01.04-.03.08-.04.15-.09.22-.15.13-.11.25-.23.35-.37.05-.08.11-.15.15-.23.15-.3.24-.63.24-.97v-32.52c0-.64-.31-1.24-.81-1.63-.36-.27-.78-.42-1.23-.42-.19,0-.37.03-.56.08l-1.48.42-28.22,7.97v-30.32l49.35-13.28v91.88Z"/><path d="m146.73,56.45c-.36-.27-.78-.42-1.23-.42-.19,0-.37.03-.56.08l-1.48.42v2.12l2.05-.57v30.46l.32.05c.92.14,1.64.91,1.72,1.85,0,.05.01.11.01.16v-32.52c0-.64-.31-1.24-.81-1.63Zm-33.02-21.87c-.16.04-.35.07-.53.07v21.96l2.05-.24v-22.19l-1.52.41Zm54.94-16.5c0-.11-.01-.21-.04-.31-.01-.09-.04-.18-.08-.25-.02-.05-.04-.1-.07-.15-.01-.03-.02-.07-.04-.09-.05-.12-.13-.23-.22-.33-.06-.07-.11-.12-.16-.18s-.11-.11-.18-.15c-.02-.02-.06-.03-.08-.05-.07-.03-.12-.08-.18-.11-.01-.01-.02-.01-.03-.01-.1-.05-.2-.1-.31-.13-.11-.04-.22-.07-.33-.09h-.01c-.27-.04-.56-.03-.84.04l-4.43,1.19h-.01l-4.85,1.31-43.72,11.76h-.02l-.41.11c-.79.22-1.37.88-1.48,1.67-.02.1-.03.2-.03.3v34.59c0,.64.31,1.24.81,1.63.24.19.53.31.81.36l.11.02c.1.02.2.03.29.03.14,0,.29-.01.43-.04.06,0,.11-.02.15-.03l.1-.03,29.61-8.35v28.33l-2.41.78h-.01l-4.24,1.41h-.02l-23.75,7.77h-.03l-.44.14c-.74.24-1.28.89-1.39,1.65-.01.1-.02.2-.02.3v31.69c0,.66.33,1.29.87,1.66.3.22.66.34,1.02.36h.05s.07.01.1.01c.1,0,.21-.01.31-.02.13-.02.26-.05.38-.1l53.42-18.63c.82-.29,1.37-1.06,1.37-1.92V18.12s0-.03-.01-.04Zm-4.08,94.69l-49.35,17.21v-27.32l30.91-10.1s.04-.01.07-.03c.1-.03.2-.08.3-.14.01.01.02,0,.03-.01.01,0,.03-.01.04-.03.08-.04.15-.09.22-.15.13-.11.25-.23.35-.37.05-.08.11-.15.15-.23.15-.3.24-.63.24-.97v-32.52c0-.64-.31-1.24-.81-1.63-.36-.27-.78-.42-1.23-.42-.19,0-.37.03-.56.08l-1.48.42-28.22,7.97v-30.32l49.35-13.28v91.88Zm-17.85-56.32c-.36-.27-.78-.42-1.23-.42v32.5l.32.05c.92.14,1.64.91,1.72,1.85,0,.05.01.11.01.16v-32.52c0-.64-.31-1.24-.81-1.63Z"/></g><g><path d="m141.04,89.9h-.01l-74.63-11.72-1.89.77-23.41,9.52-3.73,1.52,29.03,4.28,44.75,6.61,2.02.3,1.94-.64,26.1-8.53,4.28-1.4-4.45-.7Zm-28.03,9.18h-.03l-37.35-5.52-30.56-4.51,21.57-8.77,70.12,11.03-23.75,7.77Z"/><path d="m147.53,90.43c-.08-.93-.79-1.7-1.72-1.85l-.32-.05-2.05-.32-75-11.79-1.73-.27c-.11-.01-.21-.02-.32-.02-.26,0-.52.05-.77.15l-1.28.52-27.69,11.27c-.11.03-.22.09-.33.15h-.01c-.1.07-.2.13-.29.21-.15.13-.29.29-.38.45-.05.07-.09.14-.12.22-.04.08-.07.15-.1.23-.01.01-.01.03-.01.04-.03.08-.04.16-.06.25-.02.09-.02.16-.02.25,0,.01-.01.02-.01.03-.01.1,0,.21.01.31.11.91.81,1.64,1.73,1.77l.3.04,2.05.31,71.71,10.58h0s1.75.26,1.75.26c.1.01.2.01.3.01.22,0,.43-.03.64-.1l1.41-.46,30.91-10.09s.04-.01.07-.03c.1-.03.2-.08.3-.14.01.01.02,0,.03-.01.01,0,.03-.01.04-.03.08-.04.15-.09.22-.15.13-.11.25-.23.35-.37.05-.08.11-.15.15-.23.15-.3.24-.63.24-.97,0-.06-.01-.11-.01-.16Zm-34.51,8.64h-.03l-37.35-5.52-30.56-4.51,21.57-8.77,70.12,11.03-23.75,7.77Z"/></g><g><path d="m161.66,17.45h-.01L95.79,7.13l-53.14,13-5.27,1.29,73.79,10.89,2.01.3,1.97-.53,51.47-13.84-4.96-.78Zm-48.58,13.07h-.02l-65.05-9.6,47.86-11.71,60.93,9.54-43.72,11.76Z"/><path d="m168.65,18.07c0-.11-.01-.21-.04-.31-.01-.09-.04-.18-.08-.25-.02-.05-.04-.1-.07-.15-.01-.03-.02-.07-.04-.09-.05-.12-.13-.23-.22-.33-.06-.07-.11-.12-.16-.18s-.11-.11-.18-.15c-.02-.02-.06-.03-.08-.05-.07-.03-.12-.08-.18-.11-.01-.01-.02-.01-.03-.01-.1-.05-.2-.1-.31-.13-.11-.04-.22-.07-.33-.09h-.01L96.11,5.12c-.27-.04-.54-.03-.8.03l-58.28,14.25-.13.03s-.05.01-.08.02c-.07.02-.13.04-.2.07-.1.04-.21.09-.3.14-.07.03-.12.08-.18.12s-.1.08-.14.12c-.07.05-.12.12-.18.19-.03.03-.05.07-.08.1-.02.02-.03.03-.04.05-.04.05-.08.12-.11.18-.05.09-.1.19-.13.29-.01.01-.01.03-.02.05-.08.23-.11.48-.1.75.04.97.77,1.78,1.74,1.92l.3.04,2.05.3,71.71,10.58h0s1.75.26,1.75.26c.1.01.2.02.3.02.18,0,.36-.02.53-.07l1.52-.41,49.35-13.28,2.05-.55.53-.14c.9-.23,1.52-1.04,1.52-1.97v-.11s0-.03-.01-.04Zm-55.57,12.45h-.02l-65.05-9.6,47.86-11.71,60.93,9.54-43.72,11.76Z"/></g><g><path d="m111.16,100.87l-44.75-6.61-29.03-4.28v65.5l1.79,2.3,19.23,24.78,5.96,7.66h0s2.05,2.64,2.05,2.64v-66.92l25.03,3.69,2.05.3,17.66,2.62,2.05.3v-31.69l-2.02-.3Zm-50.25,81.59l-18.85-24.28,22.3,3.01v21.11l-3.45.15Zm50.23-51.96l-19.37-2.86s-.02-.01-.03-.01l-25.03-3.69c-.58-.08-1.18.09-1.63.48-.45.38-.71.95-.71,1.54v31.12l-24.94-3.36v-61.35l71.71,10.58v27.57Z"/><path d="m66.13,161.43l-1.77-.24v21.11l2.05-.09v-20.76c-.09,0-.18-.01-.27-.02Zm0,0l-1.77-.24v21.11l2.05-.09v-20.76c-.09,0-.18-.01-.27-.02Zm0,0l-1.77-.24v21.11l2.05-.09v-20.76c-.09,0-.18-.01-.27-.02Zm48.98-60.9c-.23-.71-.86-1.26-1.64-1.39l-.46-.07h-.03l-37.35-5.52-30.56-4.51-3.97-.58-3.43-.51c-.34-.04-.69-.01-1,.11-.11.03-.22.09-.33.15h-.01c-.1.07-.2.13-.29.21-.15.13-.29.29-.38.45-.05.07-.09.14-.12.22-.04.08-.07.15-.1.23-.01.01-.01.03-.01.04-.03.08-.04.16-.06.25-.02.09-.02.16-.02.25,0,.01-.01.02-.01.03-.01.02-.01.04-.01.07v65.5c0,.11.01.22.03.33,0,.03.01.07.02.1.04.25.14.48.29.69.02.04.05.09.09.13l.08.09,28.93,37.26c.07.09.14.18.23.25.07.07.13.12.21.18.18.13.38.24.62.31.1.03.2.05.3.07.1.01.19.02.29.02.16,0,.33-.02.49-.07.04,0,.08-.02.11-.03.02,0,.03,0,.05-.01.02-.01.04-.01.07-.03.38-.14.74-.42.98-.78.22-.33.34-.71.34-1.12v-64.55l20.95,3.09,2.03.31,2.05.3,19.41,2.87s.1,0,.14,0h.05s.07.01.1.01c.1,0,.21-.01.31-.02.13-.02.26-.05.38-.1.23-.09.44-.21.64-.37.45-.38.71-.95.71-1.54v-31.69c0-.22-.03-.44-.11-.64Zm-50.04,23.88c-.45.38-.71.95-.71,1.54v60.96l-3.45-4.45-18.85-24.28-2.64-3.4v-62.43l71.71,10.58v27.57l-19.37-2.86s-.02-.01-.03-.01l-25.03-3.69c-.58-.08-1.18.09-1.63.48Zm1.06,37.02l-1.77-.24v21.11l2.05-.09v-20.76c-.09,0-.18-.01-.27-.02Zm0,0l-1.77-.24v21.11l2.05-.09v-20.76c-.09,0-.18-.01-.27-.02Zm0,0l-1.77-.24v21.11l2.05-.09v-20.76c-.09,0-.18-.01-.27-.02Zm0,0l-1.77-.24v21.11l2.05-.09v-20.76c-.09,0-.18-.01-.27-.02Z"/></g><g><path d="m66.41,125.95v66.92l2.05-3.09,5.23-7.89,16.19-24.43,1.56-2.35v-25.45l-25.03-3.69Zm4.76,56.04l-2.72.12v-20.98l18.67-3.21-15.95,24.07Zm18.23-28.61l-20.95,3.61v-28.68l20.95,3.09v21.98Z"/><path d="m91.76,127.63s-.02-.01-.03-.01l-25.03-3.69c-.58-.08-1.18.09-1.63.48-.45.38-.71.95-.71,1.54v66.92c0,.45.14.88.41,1.22.07.09.14.18.23.25.07.07.13.12.21.18.18.13.38.24.62.31.1.03.2.05.3.07.1.01.19.02.29.02.16,0,.33-.02.49-.07.04,0,.08-.02.11-.03.04-.01.09-.03.12-.04.38-.14.74-.42.98-.78l24.89-37.57c.05-.07.1-.13.14-.21.05-.08.1-.15.13-.24.03-.07.07-.13.09-.21.08-.2.11-.42.11-.64v-25.48c0-1-.73-1.85-1.72-2.01Zm-2.36,26.85l-2.28,3.44-15.95,24.07-2.72,4.1v-57.78l20.95,3.09v23.08Z"/></g><path d="m93.48,155.12c0,.22-.03.44-.11.64-.02.08-.06.14-.09.21-.03.09-.08.16-.13.24-.04.08-.09.14-.14.21-.31.36-.73.62-1.22.7l-1.91.33-2.75.47-18.67,3.21-1.69.29c-.12.02-.23.03-.35.03-.09,0-.18-.01-.27-.02l-1.77-.24-22.3-3.01-2.89-.4-2.07-.27c-.51-.07-.96-.33-1.26-.68-.07-.07-.12-.14-.16-.22-.14-.21-.24-.44-.29-.69-.01-.03-.02-.07-.02-.1-.02-.11-.03-.22-.03-.33,0-.1.01-.18.02-.27.14-1.03,1.02-1.78,2.02-1.77.09,0,.19.01.27.02l1.77.24,24.94,3.36,2.01.27h.03s2.05-.35,2.05-.35l20.95-3.61,1.69-.29c.12-.02.22-.03.34-.03.98-.02,1.85.69,2.01,1.69.02.12.03.24.03.36Z"/><polygon points="73.69 181.88 68.45 189.78 66.41 192.87 64.36 190.24 64.36 190.23 58.4 182.56 60.91 182.45 64.36 182.3 66.41 182.21 68.45 182.11 71.17 181.99 73.69 181.88"/></svg>